<svg width="1440" height="1000" viewBox="0 0 1440 1000" fill="none" xmlns="http://www.w3.org/2000/svg">
  <rect width="1440" height="1000" fill="#F6F7F9"/>
  <rect x="40" y="28" width="1360" height="76" rx="14" fill="#FFFFFF" stroke="#E6E8EC"/>
  <rect x="64" y="48" width="38" height="38" rx="10" fill="#D71920"/>
  <path d="M77 67h12l-6 11h12" stroke="white" stroke-width="3" stroke-linecap="round" stroke-linejoin="round"/>
  <text x="116" y="63" fill="#151922" font-family="Microsoft YaHei, Arial" font-size="22" font-weight="700">星选商城</text>
  <text x="116" y="84" fill="#6B7280" font-family="Microsoft YaHei, Arial" font-size="13">生产级电商秒杀系统</text>
  <g font-family="Microsoft YaHei, Arial" font-size="16" font-weight="600">
    <text x="340" y="73" fill="#515761">商品</text>
    <rect x="408" y="48" width="82" height="38" rx="8" fill="#FFF1F1"/>
    <text x="432" y="73" fill="#D71920">秒杀</text>
    <text x="524" y="73" fill="#515761">购物车</text>
    <text x="620" y="73" fill="#515761">我的</text>
    <text x="696" y="73" fill="#515761">运营</text>
  </g>
  <rect x="1080" y="48" width="112" height="36" rx="18" fill="#F0FDF4" stroke="#BBF7D0"/>
  <circle cx="1100" cy="66" r="5" fill="#16A34A"/>
  <text x="1113" y="72" fill="#15803D" font-family="Microsoft YaHei, Arial" font-size="14" font-weight="600">接口已连接</text>
  <rect x="1220" y="46" width="142" height="40" rx="20" fill="#F8FAFC" stroke="#E5E7EB"/>
  <circle cx="1242" cy="66" r="13" fill="#D71920"/>
  <text x="1264" y="72" fill="#23272F" font-family="Microsoft YaHei, Arial" font-size="15" font-weight="600">demo 用户</text>

  <rect x="40" y="128" width="1360" height="178" rx="18" fill="#221114"/>
  <rect x="40" y="128" width="1360" height="178" rx="18" fill="url(#heroGrad)" opacity="0.95"/>
  <rect x="76" y="162" width="92" height="30" rx="15" fill="#FFFFFF" fill-opacity="0.14"/>
  <text x="96" y="183" fill="#FFFFFF" font-family="Microsoft YaHei, Arial" font-size="14" font-weight="600">限时秒杀</text>
  <text x="76" y="230" fill="#FFFFFF" font-family="Microsoft YaHei, Arial" font-size="42" font-weight="800">高并发秒杀抢购中心</text>
  <text x="78" y="265" fill="#FECACA" font-family="Microsoft YaHei, Arial" font-size="17">场次开抢、Redis 预扣库存、MQ 异步建单、订单支付倒计时。</text>
  <g font-family="Microsoft YaHei, Arial">
    <rect x="930" y="160" width="116" height="104" rx="14" fill="#FFFFFF" fill-opacity="0.13"/>
    <text x="966" y="201" fill="#FFFFFF" font-size="34" font-weight="800">3</text>
    <text x="956" y="232" fill="#FECACA" font-size="15">今日场次</text>
    <rect x="1070" y="160" width="116" height="104" rx="14" fill="#FFFFFF" fill-opacity="0.13"/>
    <text x="1106" y="201" fill="#FFFFFF" font-size="34" font-weight="800">12</text>
    <text x="1096" y="232" fill="#FECACA" font-size="15">可抢商品</text>
    <rect x="1210" y="160" width="116" height="104" rx="14" fill="#FFFFFF" fill-opacity="0.13"/>
    <text x="1244" y="201" fill="#FFFFFF" font-size="34" font-weight="800">1件</text>
    <text x="1236" y="232" fill="#FECACA" font-size="15">单人限购</text>
  </g>

  <rect x="40" y="330" width="896" height="84" rx="14" fill="#FFFFFF" stroke="#E6E8EC"/>
  <g font-family="Microsoft YaHei, Arial">
    <rect x="64" y="350" width="186" height="44" rx="10" fill="#F8FAFC" stroke="#E5E7EB"/>
    <text x="92" y="369" fill="#111827" font-size="15" font-weight="700">10:00 早场</text>
    <text x="92" y="388" fill="#6B7280" font-size="12">已结束</text>
    <rect x="268" y="344" width="202" height="56" rx="12" fill="#D71920"/>
    <text x="298" y="368" fill="#FFFFFF" font-size="16" font-weight="800">14:00 午场</text>
    <text x="298" y="390" fill="#FFE4E6" font-size="13">正在抢购</text>
    <rect x="488" y="350" width="186" height="44" rx="10" fill="#F8FAFC" stroke="#E5E7EB"/>
    <text x="516" y="369" fill="#111827" font-size="15" font-weight="700">20:00 晚场</text>
    <text x="516" y="388" fill="#6B7280" font-size="12">即将开始</text>
    <rect x="704" y="350" width="190" height="44" rx="10" fill="#F8FAFC" stroke="#E5E7EB"/>
    <text x="736" y="377" fill="#374151" font-size="15" font-weight="700">刷新场次</text>
  </g>

  <g font-family="Microsoft YaHei, Arial">
    <rect x="964" y="330" width="436" height="276" rx="16" fill="#FFFFFF" stroke="#E6E8EC"/>
    <text x="994" y="370" fill="#111827" font-size="22" font-weight="800">抢购结果</text>
    <rect x="994" y="396" width="118" height="32" rx="16" fill="#DCFCE7" stroke="#BBF7D0"/>
    <text x="1018" y="418" fill="#15803D" font-size="14" font-weight="700">已创建订单</text>
    <text x="994" y="462" fill="#374151" font-size="16" font-weight="700">秒杀成功，订单已创建。</text>
    <text x="994" y="492" fill="#6B7280" font-size="14">请求号：SK202606221418003129</text>
    <rect x="994" y="528" width="130" height="42" rx="10" fill="#D71920"/>
    <text x="1028" y="555" fill="#FFFFFF" font-size="15" font-weight="700">查看订单</text>
    <rect x="1150" y="528" width="130" height="42" rx="10" fill="#F8FAFC" stroke="#E5E7EB"/>
    <text x="1184" y="555" fill="#374151" font-size="15" font-weight="700">继续抢购</text>
  </g>

  <g font-family="Microsoft YaHei, Arial">
    <rect x="964" y="630" width="436" height="268" rx="16" fill="#FFFFFF" stroke="#E6E8EC"/>
    <text x="994" y="670" fill="#111827" font-size="22" font-weight="800">活动数据概览</text>
    <rect x="994" y="700" width="172" height="74" rx="12" fill="#F8FAFC"/>
    <text x="1018" y="730" fill="#6B7280" font-size="13">已提交请求</text>
    <text x="1018" y="758" fill="#111827" font-size="26" font-weight="800">12,480</text>
    <rect x="1192" y="700" width="172" height="74" rx="12" fill="#F8FAFC"/>
    <text x="1216" y="730" fill="#6B7280" font-size="13">建单成功</text>
    <text x="1216" y="758" fill="#111827" font-size="26" font-weight="800">3,216</text>
    <rect x="994" y="796" width="370" height="66" rx="12" fill="#FFF7ED" stroke="#FED7AA"/>
    <text x="1020" y="824" fill="#9A3412" font-size="14" font-weight="700">库存保护已启用</text>
    <text x="1020" y="848" fill="#B45309" font-size="13">Redis 预扣库存 + MQ 异步建单 + 限购校验</text>
  </g>

  <g font-family="Microsoft YaHei, Arial">
    <rect x="40" y="438" width="278" height="382" rx="16" fill="#FFFFFF" stroke="#E6E8EC"/>
    <rect x="64" y="462" width="230" height="124" rx="14" fill="#FEE2E2"/>
    <text x="82" y="490" fill="#B91C1C" font-size="13" font-weight="700">正在抢</text>
    <circle cx="178" cy="526" r="38" fill="#FFFFFF" fill-opacity="0.7"/>
    <text x="138" y="535" fill="#991B1B" font-size="22" font-weight="800">耳机</text>
    <text x="64" y="626" fill="#111827" font-size="19" font-weight="800">曜声降噪头戴耳机</text>
    <text x="64" y="653" fill="#6B7280" font-size="13">午场爆款，抢完即止</text>
    <text x="64" y="697" fill="#D71920" font-size="30" font-weight="900">¥649.00</text>
    <text x="180" y="696" fill="#9CA3AF" font-size="15" text-decoration="line-through">¥899.00</text>
    <text x="64" y="735" fill="#6B7280" font-size="13">已抢 69%</text>
    <text x="220" y="735" fill="#6B7280" font-size="13">剩余 46</text>
    <rect x="64" y="748" width="230" height="8" rx="4" fill="#F3F4F6"/>
    <rect x="64" y="748" width="158" height="8" rx="4" fill="#D71920"/>
    <rect x="64" y="780" width="230" height="44" rx="10" fill="#D71920"/>
    <text x="138" y="807" fill="#FFFFFF" font-size="16" font-weight="800">立即抢购</text>

    <rect x="342" y="438" width="278" height="382" rx="16" fill="#FFFFFF" stroke="#E6E8EC"/>
    <rect x="366" y="462" width="230" height="124" rx="14" fill="#E0F2FE"/>
    <text x="384" y="490" fill="#0369A1" font-size="13" font-weight="700">运动热卖</text>
    <circle cx="480" cy="526" r="38" fill="#FFFFFF" fill-opacity="0.75"/>
    <text x="442" y="535" fill="#075985" font-size="22" font-weight="800">跑鞋</text>
    <text x="366" y="626" fill="#111827" font-size="19" font-weight="800">跃行缓震跑鞋</text>
    <text x="366" y="653" fill="#6B7280" font-size="13">城市慢跑鞋，限量秒杀</text>
    <text x="366" y="697" fill="#D71920" font-size="30" font-weight="900">¥489.00</text>
    <text x="482" y="696" fill="#9CA3AF" font-size="15" text-decoration="line-through">¥639.00</text>
    <text x="366" y="735" fill="#6B7280" font-size="13">已抢 76%</text>
    <text x="522" y="735" fill="#6B7280" font-size="13">剩余 22</text>
    <rect x="366" y="748" width="230" height="8" rx="4" fill="#F3F4F6"/>
    <rect x="366" y="748" width="174" height="8" rx="4" fill="#D71920"/>
    <rect x="366" y="780" width="230" height="44" rx="10" fill="#D71920"/>
    <text x="440" y="807" fill="#FFFFFF" font-size="16" font-weight="800">立即抢购</text>

    <rect x="644" y="438" width="278" height="382" rx="16" fill="#FFFFFF" stroke="#E6E8EC"/>
    <rect x="668" y="462" width="230" height="124" rx="14" fill="#F3E8FF"/>
    <text x="686" y="490" fill="#7E22CE" font-size="13" font-weight="700">即将开始</text>
    <circle cx="782" cy="526" r="38" fill="#FFFFFF" fill-opacity="0.75"/>
    <text x="744" y="535" fill="#6B21A8" font-size="22" font-weight="800">音箱</text>
    <text x="668" y="626" fill="#111827" font-size="19" font-weight="800">脉点迷你智能音箱</text>
    <text x="668" y="653" fill="#6B7280" font-size="13">晚场预告，小身材大声场</text>
    <text x="668" y="697" fill="#D71920" font-size="30" font-weight="900">¥219.00</text>
    <text x="784" y="696" fill="#9CA3AF" font-size="15" text-decoration="line-through">¥299.00</text>
    <text x="668" y="735" fill="#6B7280" font-size="13">已抢 0%</text>
    <text x="822" y="735" fill="#6B7280" font-size="13">剩余 100</text>
    <rect x="668" y="748" width="230" height="8" rx="4" fill="#F3F4F6"/>
    <rect x="668" y="780" width="230" height="44" rx="10" fill="#F8FAFC" stroke="#E5E7EB"/>
    <text x="748" y="807" fill="#374151" font-size="16" font-weight="800">提醒我</text>
  </g>

  <rect x="40" y="846" width="896" height="52" rx="12" fill="#FFFFFF" stroke="#E6E8EC"/>
  <text x="72" y="879" fill="#374151" font-family="Microsoft YaHei, Arial" font-size="15">运营提示：发布秒杀必须配置活动、场次、活动 SKU，并完成 Redis 库存预热。</text>

  <defs>
    <linearGradient id="heroGrad" x1="40" y1="128" x2="1400" y2="306" gradientUnits="userSpaceOnUse">
      <stop stop-color="#B91C1C"/>
      <stop offset="0.52" stop-color="#7F1D1D"/>
      <stop offset="1" stop-color="#111827"/>
    </linearGradient>
  </defs>
</svg>
